<?xml version="1.0" standalone="no"?>
<!DOCTYPE svg PUBLIC "-//W3C//DTD SVG 20010904//EN"
 "http://www.w3.org/TR/2001/REC-SVG-20010904/DTD/svg10.dtd">
<svg version="1.0" xmlns="http://www.w3.org/2000/svg"
 width="819.000000pt" height="819.000000pt" viewBox="0 0 819.000000 819.000000"
 preserveAspectRatio="xMidYMid meet">
<metadata>
Created by potrace 1.14, written by Peter Selinger 2001-2017
</metadata>
<g transform="translate(0.000000,819.000000) scale(0.100000,-0.100000)"
fill="#000000" stroke="none">
<path d="M3933 8112 c-7 -5 -35 -7 -63 -6 -27 1 -50 -2 -50 -7 0 -4 -12 -7
-27 -7 -16 0 -39 -4 -53 -9 -14 -5 -37 -9 -52 -8 -16 0 -28 -3 -28 -8 0 -4 -4
-5 -10 -2 -5 3 -10 1 -10 -5 0 -6 -5 -8 -10 -5 -6 4 -18 1 -27 -7 -14 -11 -16
-11 -8 2 5 9 0 8 -13 -4 -12 -11 -22 -16 -22 -11 0 4 -6 2 -14 -4 -11 -9 -15
-9 -19 1 -4 11 -6 10 -6 0 -1 -7 -5 -10 -11 -7 -5 3 -10 1 -10 -5 0 -6 -4 -9
-9 -5 -5 3 -12 1 -16 -5 -4 -6 -11 -8 -16 -5 -5 4 -9 1 -9 -6 0 -6 -8 -9 -20
-6 -11 3 -20 1 -20 -4 0 -5 -9 -9 -20 -9 -11 0 -20 -4 -20 -10 0 -5 -9 -10
-19 -10 -11 0 -23 -5 -26 -10 -4 -6 -11 -8 -16 -5 -5 4 -9 1 -9 -5 0 -6 -4 -9
-9 -5 -5 3 -17 -2 -25 -11 -12 -11 -16 -12 -16 -2 0 9 -2 10 -8 2 -4 -7 -26
-20 -49 -30 -24 -10 -43 -22 -43 -26 0 -4 -6 -5 -13 -2 -7 2 -23 -5 -35 -16
-12 -11 -24 -20 -27 -20 -29 1 -35 -1 -29 -12 5 -7 2 -9 -9 -5 -8 3 -21 -1
-27 -8 -7 -8 -16 -12 -21 -9 -5 3 -9 0 -9 -6 0 -6 -4 -9 -8 -6 -5 3 -19 -4
-30 -15 -12 -10 -24 -19 -27 -19 -28 1 -35 -1 -30 -10 3 -5 -1 -11 -9 -11 -33
-3 -37 -4 -45 -17 -5 -8 -11 -13 -15 -13 -20 3 -26 0 -21 -9 3 -6 -1 -7 -9 -4
-9 3 -23 -1 -31 -10 -9 -9 -23 -16 -31 -16 -8 0 -14 -4 -14 -9 0 -7 -36 -22
-49 -20 -2 0 -7 -3 -10 -8 -11 -16 -64 -46 -56 -32 5 8 -4 3 -18 -10 -15 -14
-27 -21 -27 -17 0 4 -12 -2 -26 -13 -15 -11 -31 -18 -37 -14 -6 4 -8 0 -4 -11
5 -13 3 -16 -11 -12 -12 4 -29 -3 -47 -18 -16 -14 -32 -23 -37 -20 -4 3 -8 0
-8 -6 0 -6 -4 -9 -8 -6 -5 3 -19 -4 -31 -15 -12 -12 -25 -19 -28 -16 -3 3 -14
-3 -26 -13 -11 -11 -24 -17 -29 -14 -4 3 -8 1 -8 -4 0 -4 -16 -14 -35 -22 -19
-8 -35 -17 -35 -21 0 -4 -13 -12 -30 -18 -16 -5 -30 -15 -30 -20 0 -6 -7 -8
-15 -5 -8 4 -15 1 -15 -5 0 -6 -9 -11 -20 -11 -10 0 -23 -7 -28 -16 -5 -9 -13
-17 -18 -17 -5 -1 -8 -6 -6 -10 1 -5 -2 -6 -7 -3 -5 4 -12 2 -16 -4 -3 -5 -15
-10 -26 -10 -10 0 -19 -5 -19 -11 0 -5 -5 -7 -10 -4 -5 3 -10 2 -10 -4 0 -5
-16 -15 -34 -22 -19 -7 -32 -17 -29 -23 4 -5 -1 -7 -10 -3 -10 3 -17 2 -17 -3
0 -5 -11 -12 -25 -16 -14 -3 -22 -10 -19 -15 3 -5 -4 -9 -16 -9 -11 0 -23 -7
-26 -15 -4 -8 -14 -15 -24 -15 -10 0 -21 -7 -24 -16 -4 -9 -9 -14 -13 -11 -3
4 -15 -4 -27 -16 -12 -12 -25 -25 -31 -27 -5 -3 -9 -9 -7 -13 1 -5 -2 -6 -8
-2 -5 3 -13 -1 -16 -9 -3 -9 -9 -14 -14 -11 -4 2 -13 -7 -20 -20 -7 -13 -17
-22 -21 -20 -4 3 -10 -4 -14 -15 -3 -11 -11 -20 -16 -20 -5 0 -9 -7 -9 -16 0
-8 -4 -13 -9 -10 -5 3 -14 -8 -21 -24 -7 -16 -17 -27 -23 -23 -5 3 -7 2 -4 -4
4 -5 -5 -25 -18 -43 -13 -18 -22 -36 -20 -40 3 -5 -2 -10 -10 -14 -8 -3 -12
-11 -9 -19 3 -8 -2 -20 -11 -27 -13 -11 -13 -15 -3 -21 10 -7 9 -9 -3 -9 -11
0 -15 -8 -14 -25 2 -14 0 -25 -4 -25 -6 0 -12 -38 -13 -80 -1 -8 -5 -21 -11
-27 -6 -9 -6 -13 2 -13 7 0 10 -4 6 -9 -11 -19 -13 -91 -3 -84 7 4 8 1 3 -8
-11 -17 -16 -59 -6 -59 4 0 7 -9 8 -20 1 -13 -2 -18 -10 -13 -9 5 -9 3 -1 -8
6 -8 12 -21 12 -29 1 -24 7 -44 16 -59 6 -10 5 -12 -3 -7 -8 6 -8 1 1 -18 6
-14 15 -26 19 -26 4 0 6 -9 4 -20 -2 -11 1 -20 6 -20 6 0 7 -4 4 -10 -3 -5 -1
-10 4 -10 6 0 11 -9 11 -20 0 -11 5 -20 10 -20 6 0 10 -7 10 -15 0 -8 5 -15
10 -15 6 0 10 -7 10 -15 0 -8 5 -15 10 -15 6 0 10 -7 10 -15 0 -8 4 -15 8 -15
5 0 15 -11 22 -25 7 -14 20 -25 27 -25 8 0 12 -3 10 -7 -3 -5 8 -19 25 -33 16
-14 38 -33 49 -42 10 -10 22 -18 25 -18 10 0 33 -27 29 -34 -3 -3 -2 -4 1 -1
4 2 16 -1 28 -7 11 -7 24 -11 29 -10 4 1 7 -2 7 -7 0 -10 27 -21 44 -20 5 0
12 -3 15 -8 9 -12 54 -36 47 -25 -3 6 12 2 33 -9 22 -10 46 -19 54 -19 7 0 17
-3 21 -7 6 -7 29 -13 54 -15 6 -1 12 -4 12 -7 0 -3 14 -12 30 -19 17 -8 28
-17 25 -22 -3 -4 2 -13 9 -19 8 -7 17 -30 21 -52 4 -21 12 -39 18 -39 7 0 5
-5 -3 -10 -9 -6 -10 -10 -3 -10 7 0 10 -13 9 -35 -2 -19 1 -32 5 -29 5 3 9 -6
9 -20 0 -32 1 -35 17 -66 10 -19 10 -26 0 -32 -9 -6 -9 -8 1 -8 7 0 10 -4 7
-10 -3 -5 -2 -10 2 -10 8 0 12 -15 15 -57 1 -7 5 -13 9 -13 4 0 10 -12 14 -27
6 -26 56 -83 72 -83 20 0 43 -12 43 -22 0 -6 3 -9 6 -5 14 14 41 -26 39 -59
-1 -19 3 -34 9 -34 6 0 6 -4 -1 -11 -14 -14 -5 -42 10 -32 6 4 7 1 2 -8 -12
-19 -12 -63 0 -71 6 -5 5 -8 -2 -8 -7 0 -10 -6 -7 -14 3 -8 0 -17 -5 -21 -6
-3 -9 -11 -5 -16 11 -18 -5 -54 -29 -65 -13 -6 -40 -10 -60 -9 -20 0 -37 -2
-37 -6 0 -4 -12 -6 -26 -6 -15 0 -29 -5 -33 -10 -3 -4 -18 -8 -33 -8 -15 1
-25 -2 -23 -6 3 -3 -14 -11 -36 -18 -26 -8 -37 -16 -33 -24 4 -7 4 -9 -1 -5
-4 4 -14 3 -22 -3 -7 -6 -13 -8 -13 -3 -1 5 -7 -2 -15 -16 -8 -14 -14 -19 -15
-12 0 7 -10 2 -22 -10 -13 -13 -22 -26 -21 -30 2 -5 -2 -8 -8 -8 -12 0 -69
-60 -69 -73 0 -4 -5 -5 -12 -1 -6 4 -8 3 -4 -4 3 -6 -1 -17 -9 -25 -8 -9 -15
-20 -15 -26 0 -6 -5 -11 -11 -11 -5 0 -7 -4 -4 -10 3 -6 1 -10 -5 -10 -6 0 -8
-4 -5 -10 3 -5 1 -10 -6 -10 -7 0 -9 -3 -6 -7 4 -3 -1 -15 -10 -26 -13 -15
-14 -18 -3 -12 13 8 13 7 0 -10 -8 -10 -15 -21 -15 -24 0 -3 -2 -5 -5 -4 -5 1
-11 -51 -14 -119 0 -16 -4 -28 -7 -28 -3 0 -4 -16 -2 -36 3 -27 1 -34 -9 -28
-10 6 -10 4 -2 -7 5 -8 11 -27 13 -44 3 -47 6 -59 15 -74 7 -10 5 -12 -3 -6
-8 4 -7 -4 3 -24 9 -17 14 -31 10 -31 -4 0 -2 -6 4 -12 11 -14 12 -17 12 -49
0 -11 4 -18 9 -15 11 7 23 -22 15 -35 -3 -5 0 -9 5 -9 6 0 11 -6 11 -14 0 -8
4 -16 8 -18 4 -1 18 -20 31 -40 12 -21 27 -38 32 -38 5 0 9 -7 9 -17 0 -9 2
-14 5 -11 3 3 28 -17 54 -43 27 -27 54 -49 59 -49 5 0 13 -7 16 -16 3 -8 10
-12 16 -9 5 3 10 1 10 -4 0 -6 9 -20 20 -31 12 -12 18 -25 15 -30 -3 -4 -1
-10 4 -12 9 -3 18 -50 26 -128 2 -14 3 -29 4 -33 1 -5 6 -5 13 -1 6 4 8 3 4
-4 -9 -15 16 -102 27 -95 6 3 7 1 3 -6 -4 -6 -2 -18 4 -26 7 -8 9 -15 6 -15
-4 0 0 -7 8 -16 9 -8 14 -20 11 -25 -4 -5 -1 -9 4 -9 6 0 11 -7 11 -15 0 -8 5
-15 11 -15 5 0 7 -5 4 -10 -3 -6 1 -13 9 -16 9 -3 13 -10 10 -15 -3 -5 -1 -9
5 -9 5 0 13 -10 17 -22 4 -13 14 -34 23 -48 18 -27 24 -166 9 -187 -5 -7 -5
-14 2 -18 8 -5 8 -11 -1 -21 -9 -11 -9 -14 0 -14 8 0 9 -5 2 -19 -6 -10 -7
-21 -4 -25 11 -10 12 -37 2 -30 -5 3 -4 -7 1 -21 13 -34 13 -38 -2 -29 -7 5
-8 3 -2 -7 4 -8 9 -32 11 -54 1 -22 3 -57 4 -77 1 -24 6 -35 13 -31 6 4 5 -1
-3 -10 -9 -12 -10 -17 -2 -17 7 0 10 -4 7 -8 -3 -4 0 -26 5 -48 6 -21 10 -47
10 -57 0 -9 4 -17 9 -17 4 0 7 -8 6 -17 -3 -17 33 -132 44 -143 3 -3 6 -14 8
-24 2 -11 10 -29 17 -40 8 -12 14 -25 15 -31 3 -32 13 -54 23 -48 6 4 8 0 4
-10 -3 -9 -2 -19 3 -22 6 -3 15 -15 21 -27 9 -16 8 -19 -3 -12 -7 4 -5 -2 5
-13 9 -11 17 -24 17 -30 0 -6 7 -14 16 -17 8 -3 12 -10 9 -16 -3 -5 -1 -10 4
-10 6 0 11 -6 11 -13 0 -7 9 -23 20 -35 12 -12 17 -22 13 -22 -4 0 4 -10 18
-23 14 -12 24 -28 22 -34 -3 -7 2 -13 11 -13 9 0 15 -6 14 -12 -2 -7 3 -12 10
-10 8 1 11 -2 8 -6 -3 -5 4 -20 15 -33 62 -72 109 -119 119 -119 6 0 9 -4 6
-8 -3 -5 4 -15 16 -23 11 -8 31 -23 43 -34 58 -51 75 -64 75 -58 0 3 8 -3 17
-13 22 -24 73 -57 73 -47 0 4 7 -2 15 -13 8 -10 15 -15 15 -10 0 5 9 -1 19
-13 11 -13 24 -20 30 -17 5 3 17 -2 27 -11 10 -10 20 -18 23 -18 3 -1 33 -14
66 -30 33 -16 65 -29 70 -30 6 0 13 -3 16 -8 3 -4 19 -9 36 -10 17 -1 29 -5
26 -9 -2 -5 4 -8 15 -8 10 0 22 -3 26 -7 4 -4 19 -9 34 -11 15 -2 29 -7 32
-11 3 -4 20 -7 38 -5 18 1 30 -1 27 -6 -2 -4 5 -8 18 -8 23 -1 62 -9 62 -13 0
-1 11 -2 25 -3 14 -1 31 -5 38 -10 7 -4 19 -5 27 -2 8 3 15 1 15 -5 0 -6 4 -8
9 -5 11 7 72 -54 65 -66 -3 -4 -1 -8 4 -8 11 0 13 -10 16 -105 2 -44 -1 -88
-6 -99 -8 -14 -7 -17 3 -11 8 6 10 4 4 -6 -11 -18 -13 -79 -2 -79 4 0 3 -10
-4 -21 -8 -15 -8 -19 0 -15 7 5 11 -4 11 -23 0 -17 4 -31 10 -31 5 0 7 -7 4
-15 -4 -8 -1 -15 5 -15 6 0 11 -3 10 -7 -2 -16 14 -53 22 -53 5 0 9 -9 9 -20
0 -10 8 -24 18 -29 9 -6 14 -11 10 -11 -12 0 65 -80 97 -100 52 -31 127 -52
212 -56 73 -4 85 -2 103 16 18 18 20 29 15 78 -4 31 -2 94 4 139 21 148 74
274 193 458 115 177 133 270 89 440 l-23 90 22 57 c12 32 26 58 32 58 6 0 87
-24 182 -54 283 -90 672 -194 683 -182 3 3 23 69 44 148 172 629 215 761 320
994 l60 131 -16 129 c-22 186 -21 196 20 253 38 53 102 196 82 184 -9 -5 -9
-3 0 9 7 8 10 18 6 21 -3 4 -1 7 5 7 6 0 14 25 17 55 4 30 10 53 14 51 4 -3 7
20 7 50 -1 30 3 54 7 54 5 0 5 5 2 10 -3 6 -1 10 4 10 6 0 11 6 11 14 0 15 62
66 80 66 6 0 9 4 5 9 -3 5 3 12 13 15 23 8 113 92 105 100 -3 3 2 8 11 12 9 3
13 10 10 15 -3 5 2 9 10 9 9 0 15 3 14 8 -3 14 22 62 32 62 6 0 9 4 5 9 -3 5
1 16 9 24 8 8 12 17 9 21 -3 3 -1 12 5 19 7 8 9 17 5 20 -3 4 -1 7 6 7 8 0 11
7 7 15 -3 8 -2 15 2 15 7 0 12 24 15 68 0 6 4 12 8 12 4 0 6 8 4 18 -1 9 2 27
6 40 6 15 5 22 -3 22 -7 0 -3 7 8 16 10 8 13 12 5 8 -11 -5 -13 -2 -9 14 3 12
1 23 -6 26 -8 3 -8 5 0 5 8 1 9 12 4 35 -4 19 -5 37 -2 40 2 3 -1 12 -8 21 -7
8 -9 15 -5 15 4 0 1 10 -7 23 -8 12 -13 32 -12 45 1 12 -3 22 -8 22 -6 0 -8 7
-4 15 3 8 1 15 -4 15 -6 0 -10 6 -10 14 0 7 -7 19 -15 26 -9 7 -13 15 -11 18
3 2 -2 11 -10 19 -8 8 -11 20 -7 26 3 7 3 9 -2 5 -10 -9 -41 32 -37 47 2 6 1
7 -3 3 -9 -8 -35 14 -28 25 2 4 -1 7 -7 7 -7 0 -25 14 -41 31 -16 17 -29 29
-29 26 0 -4 -12 5 -26 18 -15 14 -33 25 -40 25 -8 0 -14 5 -14 11 0 5 -4 8 -9
5 -4 -3 -17 1 -27 9 -10 8 -27 15 -36 15 -10 0 -18 5 -18 11 0 6 -9 9 -20 6
-11 -3 -20 -1 -20 5 0 5 -4 7 -9 3 -5 -3 -12 -2 -15 3 -2 4 -25 8 -50 7 -25 0
-46 3 -46 8 0 4 -4 6 -8 3 -15 -9 -32 10 -34 37 -1 15 -5 27 -9 27 -8 0 -5 42
4 58 5 6 4 12 -1 12 -5 0 -9 7 -9 15 0 8 5 15 11 15 6 0 4 5 -4 10 -8 5 -10
10 -4 10 6 0 9 18 8 43 -3 67 5 94 35 107 14 6 27 11 29 11 1 -1 8 3 15 9 6 6
24 20 40 31 15 11 25 24 22 29 -3 5 -1 10 5 12 10 3 19 31 24 71 1 10 9 23 17
28 12 7 12 9 -1 9 -9 0 -11 3 -5 8 9 7 12 18 17 67 1 11 7 23 13 27 6 5 5 8
-4 8 -10 0 -10 6 4 26 9 15 12 23 5 19 -9 -5 -9 -2 -1 14 6 12 16 30 22 42 8
17 8 19 -3 13 -10 -6 -10 -5 -2 7 6 8 10 24 9 36 -1 12 3 20 8 16 5 -3 7 8 5
23 -2 19 1 28 10 27 6 -2 12 3 12 10 0 30 52 57 150 79 8 1 17 6 20 10 3 3 19
8 35 12 55 9 75 18 68 29 -4 6 2 8 15 5 12 -4 22 -3 22 1 0 3 9 12 21 19 17
11 20 11 14 0 -3 -7 3 -3 14 10 11 13 25 21 30 18 5 -3 12 1 15 10 3 8 11 12
17 8 7 -4 10 -3 7 2 -3 5 0 15 8 22 8 7 14 10 14 6 0 -4 10 5 23 19 12 15 28
27 35 27 7 0 12 4 12 9 0 6 11 23 25 38 36 40 37 43 73 101 17 28 29 52 25 52
-4 0 2 7 13 15 10 8 15 15 11 15 -5 0 1 13 12 28 15 22 17 32 9 40 -9 9 -9 12
0 12 7 0 12 9 12 20 0 11 3 20 8 20 4 0 7 15 6 32 -1 18 4 37 10 41 8 6 7 10
-2 14 -10 4 -10 8 -1 19 7 9 8 19 2 27 -8 11 -10 29 -3 42 7 14 5 31 -5 37 -7
5 -6 8 1 8 12 0 12 29 -1 49 -6 10 -4 12 5 6 9 -6 11 -4 5 4 -4 7 -9 29 -12
49 -3 21 -6 45 -7 55 -1 10 -7 22 -12 25 -5 4 -9 17 -8 29 1 12 -3 20 -7 17
-5 -3 -9 3 -9 13 0 10 -7 26 -15 36 -7 11 -11 25 -8 33 3 8 -2 17 -11 20 -9 3
-16 12 -16 20 0 8 -5 14 -12 14 -6 0 -9 3 -5 6 6 7 4 10 -42 63 -17 19 -27 39
-24 44 3 6 1 7 -5 3 -6 -3 -16 3 -22 15 -7 11 -14 19 -16 16 -3 -3 -20 10 -39
28 -18 19 -36 31 -39 28 -3 -4 -6 1 -6 10 0 10 -3 17 -7 16 -18 -3 -52 14 -47
22 3 5 -1 9 -9 9 -8 0 -26 11 -41 25 -29 27 -41 32 -30 13 4 -7 -6 -1 -23 15
-16 15 -37 27 -46 27 -9 0 -17 5 -17 10 0 6 -7 10 -16 10 -9 0 -12 5 -8 12 4
7 3 8 -5 4 -6 -4 -25 2 -41 14 -17 12 -30 18 -30 13 0 -4 -4 -3 -8 2 -13 19
-76 60 -68 44 4 -7 1 -6 -7 3 -8 10 -17 15 -20 11 -4 -3 -9 2 -13 11 -3 9 -10
14 -14 11 -5 -3 -11 -1 -15 5 -3 5 -15 10 -26 10 -11 0 -18 4 -15 9 5 8 -11
19 -36 26 -5 2 -11 4 -15 5 -5 1 -12 2 -16 1 -4 -1 -10 6 -13 14 -3 8 -10 12
-15 9 -5 -3 -9 0 -9 6 0 6 -5 8 -10 5 -6 -3 -13 1 -16 9 -3 9 -15 16 -25 16
-10 0 -19 5 -19 10 0 6 -8 10 -18 10 -11 0 -29 9 -42 20 -13 11 -28 20 -35 20
-6 0 -20 8 -31 18 -10 9 -28 19 -39 20 -11 2 -21 8 -23 13 -2 5 -10 9 -18 9
-8 0 -14 5 -14 10 0 6 -9 10 -20 10 -11 0 -20 5 -20 10 0 6 -7 10 -16 10 -9 0
-12 5 -8 12 4 7 3 8 -4 4 -6 -4 -28 4 -49 16 -21 13 -51 30 -68 38 -16 8 -33
19 -37 25 -4 5 -8 6 -8 1 0 -5 -9 -1 -20 9 -11 10 -20 14 -20 10 0 -4 -8 -1
-17 7 -10 8 -33 21 -50 29 -18 8 -33 18 -33 22 0 5 -4 6 -9 2 -5 -3 -12 -1
-16 5 -4 6 -11 8 -16 5 -5 -4 -9 1 -9 10 0 10 -5 13 -12 9 -6 -4 -17 1 -24 10
-7 10 -14 16 -16 15 -6 -4 -48 13 -48 20 0 4 -10 8 -22 8 -13 1 -24 7 -26 13
-2 5 -12 10 -23 10 -10 0 -19 5 -19 12 0 6 -3 8 -7 5 -3 -4 -15 0 -25 10 -10
9 -21 13 -24 10 -4 -3 -13 1 -21 9 -8 8 -19 12 -24 9 -5 -4 -9 -1 -9 5 0 7 -7
10 -15 6 -8 -3 -15 -1 -15 4 0 6 -7 10 -15 10 -8 0 -15 5 -15 10 0 6 -13 10
-29 10 -16 0 -34 7 -41 15 -7 8 -16 12 -21 9 -5 -2 -21 3 -36 13 -15 10 -28
17 -30 16 -10 -9 -33 -1 -27 9 5 7 2 9 -8 5 -9 -3 -21 0 -28 6 -10 9 -11 9 -5
-3 7 -12 6 -13 -6 -4 -8 6 -27 15 -44 19 -16 5 -37 10 -45 12 -8 2 -21 5 -27
5 -7 1 -13 4 -13 8 0 4 -22 6 -49 6 -27 -1 -47 2 -45 6 2 4 0 9 -5 12 -5 4
-13 1 -17 -5 -5 -8 -9 -8 -14 1 -4 7 -28 14 -52 14 -24 1 -49 5 -56 10 -7 4
-12 2 -12 -6 0 -10 -2 -10 -9 1 -6 9 -10 10 -16 2 -5 -9 -10 -9 -21 0 -11 9
-14 9 -14 -1 0 -10 -3 -10 -15 0 -12 10 -15 10 -15 0 0 -9 -3 -10 -13 -1 -10
8 -17 7 -27 -2 -10 -9 -11 -9 -6 1 8 13 -19 13 -41 -1 -6 -4 -15 -3 -18 3 -5
8 -11 7 -21 -1 -11 -9 -14 -9 -14 1 0 10 -3 10 -15 0 -11 -9 -15 -9 -15 -1 0
9 -5 9 -21 0 -15 -8 -19 -8 -15 0 8 13 6 14 -11 3z m-139 -5820 c3 -5 -1 -9
-9 -9 -8 0 -12 4 -9 9 3 4 7 8 9 8 2 0 6 -4 9 -8z m14 -32 c-7 -10 -14 -17
-17 -15 -4 4 18 35 25 35 2 0 -1 -9 -8 -20z m62 8 c0 -11 -12 -10 -30 2 -12 7
-10 9 8 7 12 0 22 -5 22 -9z m-17 -22 c15 2 16 0 6 -12 -7 -8 -7 -14 -1 -14 5
0 17 10 26 23 13 16 14 17 7 2 -6 -13 -5 -28 5 -47 8 -15 12 -28 8 -28 -4 0 0
-8 7 -17 12 -16 12 -17 -2 -6 -12 10 -20 9 -37 -3 -12 -8 -22 -20 -22 -26 0
-6 8 -4 18 5 12 11 22 13 32 7 8 -5 10 -10 4 -10 -6 0 -16 -10 -23 -22 -11
-23 -11 -23 -5 2 7 25 6 25 -14 7 -12 -11 -26 -16 -33 -11 -9 5 -10 2 -5 -12
5 -14 4 -16 -4 -8 -9 9 -9 17 -1 32 15 27 14 39 -1 24 -17 -17 -31 -15 -24 3
3 8 -2 19 -12 24 -11 7 -12 11 -4 11 7 0 10 5 7 10 -4 6 -10 8 -15 5 -5 -3
-12 -1 -15 5 -4 6 -1 9 6 8 16 -4 19 24 4 35 -6 5 -4 7 5 4 8 -2 14 -10 13
-16 -2 -6 5 -11 14 -11 9 0 13 3 10 6 -3 4 -1 16 4 27 6 11 14 15 18 10 3 -6
14 -9 24 -7z m-73 -101 c0 -2 -9 -3 -19 -2 -11 0 -18 5 -15 9 4 6 34 0 34 -7z
m86 -88 c1 -9 -2 -15 -7 -11 -5 3 -7 9 -4 14 3 4 0 11 -5 13 -6 3 -5 4 1 3 7
-1 13 -10 15 -19z"/>
<path d="M3815 2231 c-3 -3 5 -11 17 -18 13 -7 16 -13 8 -12 -8 1 -26 1 -39 0
-38 -2 -14 -16 30 -17 22 -1 38 1 35 4 -3 3 -1 11 4 18 8 9 6 12 -7 10 -10 0
-17 4 -16 10 2 11 -23 15 -32 5z"/>
<path d="M3871 2193 c5 -28 -1 -35 -18 -22 -10 8 -14 9 -10 2 4 -6 3 -14 -2
-17 -5 -3 -11 1 -15 9 -3 8 -12 12 -21 9 -11 -5 -13 -10 -5 -19 5 -6 6 -16 2
-21 -4 -4 0 -3 10 4 11 9 18 10 23 3 9 -15 65 28 58 45 -5 14 -24 20 -22 7z"/>
<path d="M3830 2110 c0 -5 5 -10 11 -10 5 0 7 5 4 10 -3 6 -8 10 -11 10 -2 0
-4 -4 -4 -10z"/>
</g>
</svg>
